# xmcd
#
# Track frame offsets: 
#        150
#        11549
#        29406
#        43080
#        55980
#        69450
#        78704
#        91481
#        105233
#        119061
#        131602
#        142871
#        155671
#        168501
#        182342
#        203395
#        217036
#        234131
#        248802
#        265196
#
# Disc length: 3763 seconds
#
# Revision: 3
# Processed by: cddbd v1.5.2PL0 Copyright (c) Steve Scherf et al.
# Submitted via: ExactAudioCopyFreeDBPlugin 1.0
#
DISCID=0f0eb114
DTITLE=Time Life Music - Classic Country ~ Great Story Songs
DYEAR=2002
DGENRE=Country
TTITLE0=Johnny Horton - The Battle Of New Orleans
TTITLE1=Marty Robbins - Big Iron
TTITLE2=Johnny Cash - Don't Take Your Guns To Town
TTITLE3=Billy Walker - Cross The Brazos At Waco
TTITLE4=Claude King - Wolverton Mountain
TTITLE5=Lester Flatt And Earl Scruggs - The Ballad Of Jed Clampett
TTITLE6=Bobby Bare - Detroit City
TTITLE7=Tom T. Hall - A Week In A Country Jail
TTITLE8=The Kingston Trio - Tom Dooley
TTITLE9=Walter Brennan - Old Rivers
TTITLE10=Ssgt Barry Sadler - The Ballad Of The Green Berets
TTITLE11=Porter Wagoner - The Carroll County Accident
TTITLE12=Johnny Horton - North To Alaska
TTITLE13=Lefty Frizzell - Saginaw, Michigan
TTITLE14=Marty Robbins - El Paso
TTITLE15=Jimmy Dean - Big Bad John
TTITLE16=Johnny Cash - A Boy Named Sue
TTITLE17=Jeannie C. Riley - Harper Valley P.T.A.
TTITLE18=The Charlie Daniels Band - The Devil Went Down To Georgia
TTITLE19=C.W. McCall - Convoy
EXTD=
EXTT0=
EXTT1=
EXTT2=
EXTT3=
EXTT4=
EXTT5=
EXTT6=
EXTT7=
EXTT8=
EXTT9=
EXTT10=
EXTT11=
EXTT12=
EXTT13=
EXTT14=
EXTT15=
EXTT16=
EXTT17=
EXTT18=
EXTT19=
PLAYORDER=
